<?xml version="1.0" standalone="no"?>
<!DOCTYPE svg PUBLIC "-//W3C//DTD SVG 20010904//EN"
 "http://www.w3.org/TR/2001/REC-SVG-20010904/DTD/svg10.dtd">
<svg version="1.0" xmlns="http://www.w3.org/2000/svg"
 width="500.000000pt" height="500.000000pt" viewBox="0 0 500.000000 500.000000"
 preserveAspectRatio="xMidYMid meet">

<g transform="translate(0.000000,500.000000) scale(0.100000,-0.100000)"
fill="#ffffff" stroke="none">
<path d="M773 3643 c-10 -4 -13 -194 -13 -909 0 -897 0 -904 20 -904 20 0 20
7 20 888 l0 887 1700 2 1700 2 0 -884 0 -885 -1335 0 c-1122 0 -1335 -2 -1335
-14 0 -11 113 -14 678 -18 372 -2 982 -2 1355 0 l677 5 -2 914 -3 914 -1725 3
c-949 1 -1731 1 -1737 -1z"/>
<path d="M970 3236 l0 -266 88 0 c110 0 175 19 230 66 142 121 115 343 -50
427 -48 25 -71 30 -162 34 l-106 6 0 -267z m238 111 c31 -31 36 -43 40 -95 7
-101 -47 -172 -132 -172 l-36 0 0 156 0 157 46 -6 c36 -4 55 -13 82 -40z"/>
<path d="M1650 3235 l0 -265 145 0 145 0 0 50 0 49 -87 3 -88 3 -3 52 -3 52
88 3 88 3 0 50 0 50 -87 3 -88 3 0 49 0 50 90 0 90 0 0 55 0 55 -145 0 -145 0
0 -265z"/>
<path d="M2230 3235 l0 -265 145 0 145 0 0 50 0 49 -87 3 -88 3 -3 213 -2 212
-55 0 -55 0 0 -265z"/>
<path d="M2760 3445 l0 -55 65 0 65 0 0 -210 0 -210 55 0 55 0 0 210 0 209 63
3 62 3 0 50 0 50 -182 3 -183 2 0 -55z"/>
<path d="M3531 3478 c-5 -13 -49 -124 -99 -248 -50 -124 -94 -233 -98 -243 -6
-16 -1 -18 56 -15 l63 3 20 53 20 52 101 0 102 0 19 -55 18 -55 64 0 63 0 -13
33 c-7 17 -56 137 -107 265 l-94 232 -53 0 c-46 0 -55 -3 -62 -22z m93 -216
c14 -37 26 -71 26 -75 0 -4 -27 -7 -60 -7 l-60 0 21 53 c12 28 25 62 30 75 5
12 10 22 13 22 2 0 16 -30 30 -68z"/>
<path d="M3093 2799 c-58 -11 -94 -31 -137 -79 -52 -58 -68 -102 -68 -185 0
-83 16 -127 68 -185 66 -73 146 -99 240 -80 113 24 184 111 184 227 l0 63
-120 0 -120 0 0 -40 0 -40 60 0 c56 0 60 -2 60 -22 -1 -44 -56 -88 -110 -88
-108 0 -173 136 -119 248 44 91 140 109 215 41 20 -19 21 -18 58 20 l37 38
-35 30 c-52 47 -134 67 -213 52z"/>
<path d="M960 2535 l0 -265 55 0 55 0 0 105 0 105 90 0 90 0 0 -105 0 -105 55
0 55 0 0 265 0 265 -55 0 -55 0 0 -105 0 -105 -90 0 -90 0 0 105 0 105 -55 0
-55 0 0 -265z"/>
<path d="M1650 2535 l0 -265 150 0 150 0 0 50 0 50 -90 0 -90 0 0 55 0 55 85
0 85 0 0 55 0 55 -85 0 -85 0 0 50 0 50 90 0 90 0 0 55 0 55 -150 0 -150 0 0
-265z"/>
<path d="M2230 2536 l0 -266 88 0 c126 0 185 20 248 84 56 56 74 98 74 180 0
71 -18 121 -62 171 -59 67 -109 87 -239 93 l-109 5 0 -267z m214 135 c45 -28
70 -77 70 -136 0 -91 -57 -155 -136 -155 l-38 0 0 155 0 155 36 0 c20 0 51 -9
68 -19z"/>
<path d="M3650 2535 l0 -265 145 0 145 0 0 50 0 49 -87 3 -88 3 -3 52 -3 52
88 3 88 3 0 50 0 50 -87 3 -88 3 0 49 0 50 90 0 90 0 0 55 0 55 -145 0 -145 0
0 -265z"/>
<path d="M1104 2100 c-111 -17 -157 -122 -93 -212 l23 -31 -25 -16 c-13 -8
-41 -32 -63 -53 -37 -37 -38 -40 -34 -93 6 -69 32 -100 106 -121 67 -20 129
-12 195 24 l47 25 29 -27 c26 -25 34 -27 95 -24 l67 3 -52 58 -51 58 36 35 35
34 -37 35 -37 34 -30 -30 c-17 -16 -35 -29 -41 -29 -11 0 -80 68 -73 73 2 2
17 11 32 21 63 39 83 114 47 173 -32 52 -96 76 -176 63z m84 -92 c18 -18 14
-49 -10 -75 -27 -29 -43 -29 -62 -1 -31 44 -14 88 34 88 14 0 31 -5 38 -12z
m-14 -309 c-3 -5 -22 -14 -44 -20 -33 -10 -43 -9 -65 5 -33 22 -33 58 2 86
l27 21 42 -42 c24 -23 41 -46 38 -50z"/>
</g>
</svg>
