<?xml version="1.0" standalone="no"?>
<!DOCTYPE svg PUBLIC "-//W3C//DTD SVG 20010904//EN"
 "http://www.w3.org/TR/2001/REC-SVG-20010904/DTD/svg10.dtd">
<svg version="1.0" xmlns="http://www.w3.org/2000/svg"
 width="200.000000pt" height="115.000000pt" viewBox="0 0 200.000000 115.000000"
 preserveAspectRatio="xMidYMid meet">

<g transform="translate(0.000000,115.000000) scale(0.100000,-0.100000)"
fill="#ffffff" stroke="none">
<path d="M876 1066 c-78 -33 -162 -113 -180 -173 -7 -21 -4 -23 36 -23 39 1
46 5 70 40 15 21 48 51 75 67 41 24 59 28 123 28 64 0 82 -4 123 -28 27 -16
60 -46 75 -67 25 -36 31 -39 75 -40 l48 0 -22 40 c-62 109 -164 172 -289 178
-62 2 -85 -2 -134 -22z"/>
<path d="M572 983 c-83 -158 -83 -308 0 -465 17 -32 34 -58 38 -58 4 0 19 9
34 21 l26 21 -19 31 c-25 42 -63 155 -56 168 4 5 163 9 402 9 l396 0 -6 -37
c-4 -21 -22 -69 -40 -106 l-34 -68 30 -21 c29 -21 30 -21 44 -2 95 127 111
343 35 489 -11 22 -27 49 -35 59 -14 19 -15 19 -44 -2 l-30 -21 34 -68 c18
-37 36 -85 40 -105 l6 -38 -396 0 c-224 0 -398 4 -401 9 -9 14 32 135 56 166
l22 28 -28 23 c-15 13 -31 24 -35 24 -5 0 -22 -26 -39 -57z"/>
<path d="M690 632 c0 -4 13 -28 28 -53 130 -204 434 -204 564 0 15 25 28 49
28 53 0 4 -18 8 -41 8 -36 0 -46 -5 -85 -49 -103 -114 -265 -114 -368 0 -39
44 -49 49 -85 49 -23 0 -41 -4 -41 -8z"/>
<path d="M200 236 c0 -91 -3 -96 -60 -96 -35 0 -52 21 -48 57 3 24 8 28 41 31
47 4 53 32 6 32 -56 0 -69 -14 -69 -75 0 -63 13 -75 79 -75 66 0 81 23 81 125
0 69 -3 85 -15 85 -12 0 -15 -16 -15 -84z"/>
<path d="M460 231 c0 -82 2 -91 22 -105 12 -9 26 -16 30 -16 14 0 8 28 -7 34
-12 4 -15 24 -15 91 0 69 -3 85 -15 85 -12 0 -15 -17 -15 -89z"/>
<path d="M990 214 c0 -80 3 -105 13 -102 8 3 13 36 15 106 2 86 0 102 -13 102
-12 0 -15 -17 -15 -106z"/>
<path d="M1508 233 l-3 -88 -45 0 -45 0 0 40 c0 39 1 40 38 43 53 5 51 32 -2
32 -52 0 -71 -20 -71 -75 0 -52 24 -75 80 -75 20 0 46 7 58 16 20 14 22 23 22
105 0 71 -3 89 -15 89 -11 0 -15 -19 -17 -87z"/>
<path d="M590 285 c0 -20 -5 -25 -25 -25 -32 0 -34 -27 -2 -32 19 -3 22 -10
25 -60 2 -32 7 -58 12 -58 5 0 10 26 12 58 3 56 3 57 36 60 46 5 43 32 -3 32
-31 0 -35 3 -35 25 0 14 -4 25 -10 25 -5 0 -10 -11 -10 -25z"/>
<path d="M286 244 c-25 -25 -21 -99 6 -118 29 -21 88 -21 88 -1 0 10 -11 15
-35 15 -40 0 -60 27 -51 66 6 23 11 25 54 22 34 -2 47 -7 47 -18 0 -10 -12
-16 -37 -18 -51 -4 -53 -32 -3 -32 36 0 75 28 75 53 0 43 -109 66 -144 31z"/>
<path d="M730 246 c0 -11 14 -16 48 -18 l47 -3 0 -40 0 -40 -50 0 c-38 0 -50
4 -50 15 0 10 12 16 38 18 53 5 51 32 -2 32 -30 0 -44 -6 -55 -22 -20 -29 -20
-34 4 -58 25 -25 101 -28 124 -4 24 24 22 110 -3 124 -30 16 -101 13 -101 -4z"/>
<path d="M1040 246 c0 -10 13 -16 38 -18 l37 -3 5 -54 c7 -78 30 -80 30 -3 0
44 -4 63 -18 75 -23 21 -92 23 -92 3z"/>
<path d="M1208 249 c-24 -13 -25 -101 -2 -123 20 -21 84 -22 84 -2 0 10 -13
16 -37 18 -37 3 -38 4 -38 43 l0 40 50 0 c38 0 50 -4 50 -15 0 -10 -12 -16
-37 -18 -48 -4 -54 -32 -7 -32 46 0 69 16 69 50 0 19 -7 33 -19 40 -25 13 -91
13 -113 -1z"/>
<path d="M1596 244 c-10 -9 -16 -33 -16 -59 0 -51 24 -75 77 -75 48 0 44 28
-4 32 -37 3 -38 4 -38 43 l0 40 45 0 45 0 0 -75 0 -75 -37 -3 c-25 -2 -38 -8
-38 -18 0 -19 59 -19 88 2 20 13 22 24 22 94 0 58 -4 83 -16 94 -21 21 -107
21 -128 0z"/>
<path d="M1796 238 c-40 -56 -6 -128 59 -128 50 0 48 28 -2 32 -37 3 -38 4
-38 43 l0 40 48 3 c42 3 48 1 45 -15 -2 -13 -14 -19 -41 -21 -44 -4 -46 -25
-3 -30 34 -4 76 22 76 48 0 33 -28 50 -80 50 -39 0 -52 -4 -64 -22z"/>
</g>
</svg>
